<mxfile host="app.diagrams.net" modified="2021-02-25T03:59:32.455Z" agent="5.0 (Windows NT 10.0; Win64; x64) AppleWebKit/537.36 (KHTML, like Gecko) Chrome/88.0.4324.182 Safari/537.36" etag="ksUwDHHzPoa7b8gYRbKc" version="14.4.3" type="github">
  <diagram id="OKZmLAo0fw7J7wTRaCY-" name="Page-1">
    <mxGraphModel dx="813" dy="403" grid="1" gridSize="10" guides="1" tooltips="1" connect="1" arrows="1" fold="1" page="1" pageScale="1" pageWidth="850" pageHeight="1100" math="0" shadow="0">
      <root>
        <mxCell id="0" />
        <mxCell id="1" parent="0" />
        <mxCell id="phHPlyiRg4puoFaAQatL-11" style="edgeStyle=orthogonalEdgeStyle;rounded=0;orthogonalLoop=1;jettySize=auto;html=1;exitX=0;exitY=0.25;exitDx=0;exitDy=0;entryX=0.5;entryY=0;entryDx=0;entryDy=0;" edge="1" parent="1" source="ETH6E-rhl-YNPLs5-pxq-1" target="phHPlyiRg4puoFaAQatL-2">
          <mxGeometry relative="1" as="geometry" />
        </mxCell>
        <mxCell id="phHPlyiRg4puoFaAQatL-12" style="edgeStyle=orthogonalEdgeStyle;rounded=0;orthogonalLoop=1;jettySize=auto;html=1;exitX=1;exitY=0.25;exitDx=0;exitDy=0;" edge="1" parent="1" source="ETH6E-rhl-YNPLs5-pxq-1" target="phHPlyiRg4puoFaAQatL-3">
          <mxGeometry relative="1" as="geometry" />
        </mxCell>
        <mxCell id="ETH6E-rhl-YNPLs5-pxq-1" value="&lt;h1&gt;Day 1&lt;/h1&gt;&lt;p&gt;Basic idea of Day 1&lt;/p&gt;&lt;p&gt;&lt;br&gt;&lt;/p&gt;" style="text;html=1;strokeColor=none;fillColor=none;spacing=5;spacingTop=-20;whiteSpace=wrap;overflow=hidden;rounded=0;" parent="1" vertex="1">
          <mxGeometry x="320" y="30" width="120" height="120" as="geometry" />
        </mxCell>
        <mxCell id="phHPlyiRg4puoFaAQatL-1" value="&lt;h1&gt;Day 2&lt;/h1&gt;&lt;p&gt;Basic idea of Day 2&lt;/p&gt;&lt;p&gt;&lt;br&gt;&lt;/p&gt;" style="text;html=1;strokeColor=none;fillColor=none;spacing=5;spacingTop=-20;whiteSpace=wrap;overflow=hidden;rounded=0;" vertex="1" parent="1">
          <mxGeometry x="320" y="220" width="120" height="120" as="geometry" />
        </mxCell>
        <mxCell id="phHPlyiRg4puoFaAQatL-13" style="edgeStyle=orthogonalEdgeStyle;rounded=0;orthogonalLoop=1;jettySize=auto;html=1;exitX=0.5;exitY=1;exitDx=0;exitDy=0;entryX=0;entryY=0.25;entryDx=0;entryDy=0;" edge="1" parent="1" source="phHPlyiRg4puoFaAQatL-2" target="phHPlyiRg4puoFaAQatL-1">
          <mxGeometry relative="1" as="geometry" />
        </mxCell>
        <mxCell id="phHPlyiRg4puoFaAQatL-2" value="Get Thai" style="text;html=1;strokeColor=none;fillColor=none;align=center;verticalAlign=middle;whiteSpace=wrap;rounded=0;" vertex="1" parent="1">
          <mxGeometry x="250" y="150" width="70" height="20" as="geometry" />
        </mxCell>
        <mxCell id="phHPlyiRg4puoFaAQatL-15" style="edgeStyle=orthogonalEdgeStyle;rounded=0;orthogonalLoop=1;jettySize=auto;html=1;exitX=0.5;exitY=1;exitDx=0;exitDy=0;entryX=1;entryY=0.25;entryDx=0;entryDy=0;" edge="1" parent="1" source="phHPlyiRg4puoFaAQatL-3" target="phHPlyiRg4puoFaAQatL-1">
          <mxGeometry relative="1" as="geometry" />
        </mxCell>
        <mxCell id="phHPlyiRg4puoFaAQatL-3" value="Get other food" style="text;html=1;strokeColor=none;fillColor=none;align=center;verticalAlign=middle;whiteSpace=wrap;rounded=0;" vertex="1" parent="1">
          <mxGeometry x="425" y="150" width="95" height="20" as="geometry" />
        </mxCell>
      </root>
    </mxGraphModel>
  </diagram>
</mxfile>
